<svg id="Ouro_Prata" data-name="Ouro Prata" xmlns="http://www.w3.org/2000/svg" viewBox="0 0 232.81 111.18"><defs><style>.cls-1{fill:#499ed4;}</style></defs><title>4.IFGW</title><path d="M191.57,52.25c0.51,1,.93,2,1.54,3l3.29,6c3.29,6.38,4.11,5.55,2.06,9-0.72,1.13-2.57,5.25-3.29,5.76L182.63,52.15c-1.85-.41-24.68-0.31-26.74,0-5.14.82-9.46,3.39-11.83,8.12a11.09,11.09,0,0,0-1.54,5H118.45V57.86H141.3V52.15c-0.72-.41-25.81-0.1-28.8-0.1V65.32h-4.42v6.17h4.42v14h5.8V71.61h24.07c0,5,5.25,11.52,11.21,13.16,4.94,1.44,20.47.82,26.43,0.82V65.53c-0.62-.31-19.34-0.1-21.6-0.1V71.6h15.74v7.82H158.31c-13.47,0-13.58-21.39.51-21.39h18.72c0.82,0,1.13.93,1.44,1.54,1.54,3.19,5.25,9.36,7.1,13.06L190.19,80c4.53,9.15,6.27,6.58,9.87.72a52.22,52.22,0,0,0,3.29-6.27h0.51a18.7,18.7,0,0,0,1.65,3.19C207.16,80.46,209.32,86,212,86c2,0,4-3.91,4.83-5.45l6.07-10.9a23.15,23.15,0,0,1,1.23-2.16l8.54-15.32-7.61.1-4.94,9c-1,2.16-7.61,13.58-7.82,14.81-0.72-.51-10.9-19.75-12.34-22.42a9.39,9.39,0,0,0-.72-1.44Z" transform="translate(0 -0.01)"/><path d="M34.42,27.77A9.21,9.21,0,0,0,33,19.65a8.76,8.76,0,0,0-6.58-3.91,9.65,9.65,0,0,0-4.53.51c-9,3.19-8.12,15.63.72,18.2a1.3,1.3,0,0,0,.62.1,6.72,6.72,0,0,0,2.47.21c4.53-.62-0.31.31,4.22,4.83,2.57,2.57,4.83,2.06,7.41,1.44-1,2.16,1.23,6.17,4.63,6.17,7.41,0,6.38-11.52-1-9.87,0.72-3.09,1-5-1.75-7.82a5.91,5.91,0,0,0-4.73-1.75" transform="translate(0 -0.01)"/><path d="M4.7,43a8.3,8.3,0,0,0,8.47,8.12h0.07a7.42,7.42,0,0,0,4.11-1.23c1.13-.62,1.65-1.65,2.67-2.26a6.17,6.17,0,0,0,5.66,5.66,6,6,0,0,0,6.17-5.76,6.54,6.54,0,0,0-1.23-3.91c-2.16-3-6.69-3.09-9.36,0C21.16,31.27,4.7,32.71,4.7,43" transform="translate(0 -0.01)"/><path d="M43.78,21.15C39.87,24.54,41,31.74,48,31.74c2.67,0,5.45-2.67,5.45-6.17a6.17,6.17,0,0,0-5.66-5.66c1.65-2.47,3.5-2,3.5-7.82,0-3.81-4.22-7.41-8.12-7.41a8.32,8.32,0,0,0-8.33,8.12,8,8,0,0,0,2.67,6.07c1.65,1.54,3,2.16,6.27,2.26" transform="translate(0 -0.01)"/><rect x="96.13" y="52.13" width="6.17" height="33.43"/><rect x="48.92" y="93.89" width="183.89" height="1.03"/><path d="M68,7.41C68-1.74,57-2,54.89,4.32a7,7,0,0,0,4,9,6.81,6.81,0,0,0,4.94,0c2-.82,4.22-3.39,4.22-5.86" transform="translate(0 -0.01)"/><path d="M7.37,68.09c2.57,0,5-2.26,5.76-4.22a7,7,0,0,0-4-9,6.81,6.81,0,0,0-4.94,0c-6.07,2.16-6,13.16,3.19,13.16" transform="translate(0 -0.01)"/><path d="M74.94,5.15A5.46,5.46,0,1,0,80.7,0H80.39a5.39,5.39,0,0,0-3.7,1.44,6,6,0,0,0-1.75,3.7" transform="translate(0 -0.01)"/><path d="M5.93,85.78a4.32,4.32,0,0,0,2.16-.62A5.44,5.44,0,0,0,5.72,75c-7.3,0-8,10.8.21,10.8" transform="translate(0 -0.01)"/><path d="M16.53,60.48A4.9,4.9,0,0,0,18,64c5.25,4.83,11.62-3.09,6.89-7.1a5,5,0,0,0-8.33,3.6" transform="translate(0 -0.01)"/><path d="M55.61,21.15a4.95,4.95,0,1,0,5.25-4.63H60.55a5,5,0,0,0-4.94,4.63" transform="translate(0 -0.01)"/><path d="M36.69,55.54c2.57,0,5.25-4.32,2.26-7.2s-7.2-.31-7.2,2.26c0,3.7,1.23,4.94,4.94,4.94" transform="translate(0 -0.01)"/><path d="M55.61,36.62c0-3.6-1.34-4.94-4.94-4.94a3.88,3.88,0,0,0-3.29,2.78,4.29,4.29,0,0,0,5.45,5.45,3.88,3.88,0,0,0,2.78-3.29" transform="translate(0 -0.01)"/><path d="M92.43,7.92c0,5.14,8.12,5.35,8.12,0,0-5.55-8.12-5.45-8.12,0" transform="translate(0 -0.01)"/><path d="M3.67,96.68c0,4.83,8.12,5.45,8.12,0,0-5.76-8.12-5.35-8.12,0" transform="translate(0 -0.01)"/><path d="M70.3,20.37c0,5.25,7.82,5.25,7.82,0s-7.82-5.14-7.82,0" transform="translate(0 -0.01)"/><path d="M16.53,74.26c0,5.25,7.82,5.25,7.82,0s-7.82-5.25-7.82,0" transform="translate(0 -0.01)"/><path d="M57.3,32.71c0,5,7.1,4.63,7.1,0a3.64,3.64,0,0,0-6.27-2.37,3.34,3.34,0,0,0-.82,2.37" transform="translate(0 -0.01)"/><path d="M32.67,64.39a4,4,0,0,0,3.7-3.7,3.6,3.6,0,1,0-3.7,3.71" transform="translate(0 -0.01)"/><path d="M179.54,99.35c0.21,0.62,2.16,8.64,2.16,9.36h1.44l1.75-7.61,0.41,1a3.65,3.65,0,0,1,.21,1c1.23,5.66.72,5.55,2.78,5.55,0-1.23,1.85-7.61,2.16-9.36h-1.23a75.47,75.47,0,0,0-1.75,7.61l-1-3.91c-0.21-1.13-.62-2.47-0.93-3.7H184.3l-1.75,7.61-2-7.61h-1v0.06Z" transform="translate(0 -0.01)"/><path d="M208.3,105.53c0,2.78,2,4,4.94,2.47,0,3.29-2.47,2.16-4.22,1.75V111a10.14,10.14,0,0,0,1.75.21c4.63,0,3.7-3,3.7-9.36h-1.75c-0.62-.1.31-0.21-0.93-0.21-2.57-.1-3.5,1.44-3.5,3.91m1.23-.82a2.13,2.13,0,0,1,1.75-2.16c2.37,0,2,.41,2,3.91-0.1,1-3.81,3.09-3.7-1.75h0Z" transform="translate(0 -0.01)"/><path d="M152,103.78c0-3.5,2.78-4.94,6.38-2.47,0-1.44.31-1.44-.82-1.85-8.12-2.78-9,9.46-2.57,9.46,2.06,0,2.06-.41,3.5-0.72V104H155v1h2.16v2.67c-1.23.1-5.14,1.44-5.14-3.91" transform="translate(0 -0.01)"/><path d="M82.86,22.43c0,3.39,5.86,3.7,5.86-.21a3.06,3.06,0,0,0-3.09-2.88,2.84,2.84,0,0,0-2.79,2.89c0,0.07,0,.13,0,0.2" transform="translate(0 -0.01)"/><path d="M19.2,85.78c0,3.81,5.86,3.91,5.86,0s-5.86-3.7-5.86,0" transform="translate(0 -0.01)"/><path d="M172.3,108.92c1.85,0,3-1.85,3-3.7,0-5.76-4.73-3-4.94-3V98.83h-1.23v9.87c1.65,0,.82-0.21,2,0a5.15,5.15,0,0,0,1.23.21m-0.21-1c-2.26,0-1.75-1-1.75-4.63,0.62-.21,3.7-2.67,3.7,2.47a2,2,0,0,1-1.71,2.25h0a0.21,0.21,0,0,1-.21-0.1h0Z" transform="translate(0 -0.01)"/><path d="M98.09,105.22c0,3.91,3.29,4.53,4.42,3,1.13,0.41-.1.1,0.82,0.41a2.85,2.85,0,0,0,.93.1V98.86H103V102c-2.78-1.44-4.94.41-4.94,3.19m1.23,0c0-1.13.72-2.67,1.75-2.67,2.47,0,2,.41,2,4.22,0,0.93-3.7,2.78-3.7-1.54h0Z" transform="translate(0 -0.01)"/><path d="M67.85,31.68a2.85,2.85,0,0,0,5.66.72h0V32c0-3.7-5.66-3.5-5.66-.31" transform="translate(0 -0.01)"/><path d="M31.95,73.54c3.5,0,4.32-5.66-.21-5.66-3.29,0-3.39,5.66.21,5.66" transform="translate(0 -0.01)"/><path d="M216.87,103.78c0-1,1.44-1.34,3-1a22.41,22.41,0,0,1,.21,5.86h1.22c0-3.19.72-7.1-2.16-7.1a2.89,2.89,0,0,0-2.16,1v-3.7h-1.23v9.87H217l-0.1-4.94h0Z" transform="translate(0 -0.01)"/><path d="M140.46,103.06c1.44-.31,3.7-1.44,3.91,1-6.48,0-4.73,4.94-2.16,4.94a12.44,12.44,0,0,0,1.85-.51c0.93-.1-0.31.31,1.65,0.31v-4.94c0-3.19-4.32-2-5.14-2l-0.1,1.13h0v0.07Zm0.72,2.88a4.58,4.58,0,0,1,3.19-1v2.16c-2,1-1.65.82-3,.51Z" transform="translate(0 -0.01)"/><path d="M202.17,103.06c1.44-.31,3.7-1.44,3.91,1-6.48,0-4.73,4.94-2.16,4.94a12.44,12.44,0,0,0,1.85-.51c0.93-.1-0.31.31,1.65,0.31v-4.94c0-3.19-4.32-2-5.14-2l-0.1,1.13h0v0.07Zm0.72,2.88a4.58,4.58,0,0,1,3.19-1v2.16c-2,1-1.65.82-3,.51Z" transform="translate(0 -0.01)"/><path d="M191.06,103.06c1.44-.31,3.7-1.44,3.91,1-6.48,0-4.73,4.94-2.16,4.94a12.44,12.44,0,0,0,1.85-.51c0.93-.1-0.31.31,1.65,0.31v-4.94c0-3.19-4.32-2-5.14-2l-0.1,1.13h0v0.07Zm0.72,2.88a4.58,4.58,0,0,1,3.19-1v2.16c-2,1-1.65.82-3,.51Z" transform="translate(0 -0.01)"/><path d="M108.47,108a2.2,2.2,0,0,1-2.26-2.14v-0.33h4.94c0-1.13.1-2.26-.93-3.29-1.85-1.75-5.25-.1-5.25,2.57,0,5.25,3.5,4.22,5.86,3.7V107a3.35,3.35,0,0,1-2.37,1m-2.26-3.39a1.84,1.84,0,0,1,1.67-2h0.29c1.34,0,1.65.62,1.75,2H106.2Z" transform="translate(0 -0.01)"/><path d="M165.24,108a2.2,2.2,0,0,1-2.26-2.14v-0.33h4.94c0-5.86-4.63-3.7-5.25-3a4.43,4.43,0,0,0-.93,2.26c0,5.25,3.5,4.22,5.86,3.7v-1.54a3.35,3.35,0,0,1-2.37,1M163,104.55a1.84,1.84,0,0,1,1.67-2h0.29c1.34,0,1.65.62,1.75,2H163Z" transform="translate(0 -0.01)"/><path d="M87.08,105.53a3.25,3.25,0,0,0,6.48.51h0v-0.51c-0.1-5.35-6.48-5.35-6.48,0m1.23,0.21c0-4.94,3.91-3.5,3.91-1,0,4.9-3.92,3.41-3.92,1h0Z" transform="translate(0 -0.01)"/><path d="M53.3,103.78c0-1,1.44-1.34,3-1a22.41,22.41,0,0,1,.21,5.86h1.23c0-3.19.72-7.1-2.16-7.1a2.89,2.89,0,0,0-2.16,1v-0.72H52.19v6.89h1.23l-0.1-4.94h0Z" transform="translate(0 -0.01)"/><path d="M226.95,103.78c0-1,1.44-1.34,3-1a22.41,22.41,0,0,1,.21,5.86h1.23c0-3.19.72-7.1-2.16-7.1a2.89,2.89,0,0,0-2.16,1v-0.72h-1.23v6.89h1.23l-0.1-4.94h0Z" transform="translate(0 -0.01)"/><polygon points="117.83 100.27 121.94 100.27 121.94 99.34 116.49 99.34 116.49 108.7 117.83 108.7 117.83 103.97 121.74 103.97 121.74 103.04 117.83 103.04 117.83 100.27"/><path d="M76.18,106.76a2.17,2.17,0,0,0,2.16,2.16,2.89,2.89,0,0,0,2.16-1v0.72h1.23v-6.89H80.5v5.4c-1.65.41-.51,1-3,0.51a22.41,22.41,0,0,1-.21-5.86H76.06l0.1,4.94h0Z" transform="translate(0 -0.01)"/><path d="M126.88,103.57c0-1.65,2.37-.82,3.5-0.21,0-1.13.21-1-.51-1.44s-4.22-.72-4.22,2c0,2.88,3.7,1.23,3.7,3.19,0,1.44-2,1.23-3.7,0v1.44c0.72,0.21,4.94,1.65,4.94-1.75,0-2.88-3.7-1.34-3.7-3.19" transform="translate(0 -0.01)"/><path d="M60.24,103.57c0-1.65,2.37-.82,3.5-0.21,0-1.13.21-1-.51-1.44s-4.22-.72-4.22,2c0,2.88,3.7,1.23,3.7,3.19,0,1.44-2,1.23-3.7,0v1.44c0.72,0.21,4.94,1.65,4.94-1.75,0-2.88-3.7-1.34-3.7-3.19" transform="translate(0 -0.01)"/><path d="M135.3,105.22c0-3.39,2.37-3,4.22-1.75V102a8.24,8.24,0,0,0-2.16-.51c-4.32,0-4.11,7.41-.21,7.41a7.08,7.08,0,0,0,2.47-.51V107a2.92,2.92,0,0,1-2.47,1c-1.23,0-1.85-1.54-1.85-2.78" transform="translate(0 -0.01)"/><path d="M199.9,108.92c1.23,0,1.23,0,1.23-1.23-2.57,1.23-2-1.75-2-4.94h2v-1h-2V99.9H197.9v2h-0.72v1h0.72c0,2.67-.72,6.17,2,6.07" transform="translate(0 -0.01)"/><path d="M85.54,108.92c1.23,0,1.23,0,1.23-1.23-2.57,1.23-2-1.75-2-4.94h2v-1h-2V99.9H83.54v2H82.72v1h0.72c0.1,2.67-.62,6.17,2.06,6.07" transform="translate(0 -0.01)"/><path d="M74.22,108.92c1.23,0,1.23,0,1.23-1.23-2.57,1.23-2-1.75-2-4.94h2v-1h-2V99.9H72.3v2H71.48v1H72.2c0.1,2.67-.62,6.17,2.06,6.07" transform="translate(0 -0.01)"/><path d="M67.13,108.92c1.23,0,1.23,0,1.23-1.23-2.57,1.23-2-1.75-2-4.94h2v-1h-2V99.9H65.13v2H64.41v1h0.72c0,2.67-.72,6.17,2,6.07" transform="translate(0 -0.01)"/><path d="M33,76.73a3.91,3.91,0,0,0-1.34.93c-1.44,1.75.51,3.5,1.54,3.5a2.21,2.21,0,0,0,.1-4.42H33" transform="translate(0 -0.01)"/><path d="M76.69,32.92a2.23,2.23,0,1,0,4.42.51V33.15c0-1-1.75-3.09-3.5-1.54a5.22,5.22,0,0,0-.93,1.34" transform="translate(0 -0.01)"/><rect x="49.43" y="98.83" width="1.23" height="9.87"/><rect x="159.58" y="98.83" width="1.23" height="9.87"/><rect x="123.18" y="101.81" width="1.23" height="6.89"/><rect x="131.81" y="101.81" width="1.23" height="6.89"/><rect x="223.04" y="101.81" width="1.23" height="6.89"/><rect x="69.28" y="101.81" width="1.23" height="6.89"/><path d="M123.18,100.59c1.23,0,1.13-.21,1.65-1a12.5,12.5,0,0,0,1-1.44h-1.75a5.58,5.58,0,0,1-.93,2.47" transform="translate(0 -0.01)"/><rect x="131.81" y="99.34" width="1.23" height="1.23"/><rect x="223.04" y="99.34" width="1.23" height="1.23"/><rect x="69.28" y="99.34" width="1.23" height="1.23"/><ellipse class="cls-1" cx="66.82" cy="66.53" rx="22.42" ry="22.93"/></svg>